<svg width="707" height="301" viewBox="0 0 707 301" fill="none" xmlns="http://www.w3.org/2000/svg">
<path d="M658.201 213.315C658.201 216.075 660.434 218.312 663.189 218.312H677.302C680.056 218.312 682.289 216.075 682.289 213.315V116.273C682.289 113.513 680.056 111.275 677.302 111.275H663.189C660.434 111.275 658.201 113.513 658.201 116.273V213.315Z" fill="black"/>
<path d="M659.249 91.7569C662.321 94.8351 665.951 96.3742 670.141 96.3742C674.469 96.3742 678.1 94.8351 681.033 91.7569C684.105 88.6788 685.641 85.0409 685.641 80.8434C685.641 76.6458 684.105 73.008 681.033 69.9298C678.1 66.8516 674.469 65.3125 670.141 65.3125C665.951 65.3125 662.321 66.8516 659.249 69.9298C656.177 73.008 654.641 76.6458 654.641 80.8434C654.641 85.0409 656.177 88.6788 659.249 91.7569Z" fill="black"/>
<path fill-rule="evenodd" clip-rule="evenodd" d="M587.388 134.44H608.445C611.835 134.44 614.583 137.196 614.583 140.596V156.469C614.583 176.747 598.193 193.185 577.974 193.185C574.508 193.185 571.698 190.367 571.698 186.891V150.175C571.698 141.485 578.723 134.44 587.388 134.44ZM547.641 150.175C547.641 128.16 565.436 110.312 587.388 110.312H608.445C625.122 110.312 638.641 123.871 638.641 140.596C638.641 167.784 638.594 194.973 638.594 222.162C638.594 244.177 620.798 262.024 598.847 262.024H553.619C550.858 262.024 548.619 259.786 548.619 257.024L548.619 242.897C548.619 240.136 550.858 237.897 553.619 237.897H598.847C607.512 237.897 614.536 230.852 614.536 222.162V208.31C614.445 206.432 613.894 205.646 611.449 207.22C601.854 213.598 590.347 217.312 577.974 217.312C561.221 217.312 547.641 203.692 547.641 186.891V150.175Z" fill="black"/>
<path d="M503.431 213.315C503.431 216.075 505.808 218.312 508.74 218.312H523.764C526.696 218.312 529.073 216.075 529.073 213.315V116.273C529.073 113.513 526.696 111.275 523.764 111.275H508.74C505.808 111.275 503.431 113.513 503.431 116.273V213.315Z" fill="black"/>
<path d="M504.546 91.7569C507.816 94.8351 511.681 96.3742 516.141 96.3742C520.749 96.3742 524.614 94.8351 527.735 91.7569C531.005 88.6788 532.641 85.0409 532.641 80.8434C532.641 76.6458 531.005 73.008 527.735 69.9298C524.614 66.8516 520.749 65.3125 516.141 65.3125C511.681 65.3125 507.816 66.8516 504.546 69.9298C501.276 73.008 499.641 76.6458 499.641 80.8434C499.641 85.0409 501.276 88.6788 504.546 91.7569Z" fill="black"/>
<path fill-rule="evenodd" clip-rule="evenodd" d="M431.388 134.44H452.445C455.835 134.44 458.583 137.196 458.583 140.596V156.469C458.583 176.747 442.193 193.185 421.974 193.185C418.508 193.185 415.698 190.367 415.698 186.891V150.175C415.698 141.485 422.723 134.44 431.388 134.44ZM391.641 150.175C391.641 128.16 409.436 110.312 431.388 110.312H452.445C469.122 110.312 482.641 123.871 482.641 140.596V144.861V156.469V213.764C482.641 215.724 480.509 217.312 477.879 217.312H464.403C461.773 217.312 459.641 215.724 459.641 213.764V208.102C459.618 205.843 459.199 204.757 456.504 206.504L456.505 206.501C446.704 213.318 434.804 217.312 421.974 217.312C405.221 217.312 391.641 203.692 391.641 186.891V150.175Z" fill="black"/>
<path d="M276.978 217.312C273.478 217.312 270.641 214.473 270.641 210.971V78.6536C270.641 75.1515 273.478 72.3125 276.978 72.3125H288.94C292.44 72.3125 295.278 75.1515 295.278 78.6536V128.736C295.278 132.238 298.115 135.077 301.615 135.077H314.632C319.877 135.077 324.639 134.11 328.918 132.177C333.334 130.105 336.785 127.136 339.269 123.27C341.892 119.403 343.203 114.777 343.203 109.391V78.6536C343.203 75.1515 346.04 72.3125 349.541 72.3125H361.502C365.002 72.3125 367.84 75.1515 367.84 78.6536V109.184C367.84 118.713 365.493 127.067 360.801 134.248C357.209 139.744 352.729 144.309 347.359 147.944C344.559 149.841 343.275 153.445 344.684 156.521L360.387 190.798C361.077 192.455 361.974 193.629 363.078 194.32C364.182 195.01 365.631 195.355 367.426 195.355H373.303C376.803 195.355 379.641 198.194 379.641 201.696V210.971C379.641 214.473 376.803 217.312 373.303 217.312H363.699C357.212 217.312 351.829 215.932 347.551 213.17C343.41 210.408 340.235 206.61 338.027 201.777L319.145 160.591C318.053 158.211 315.58 156.773 312.976 157.034C309.189 157.034 305.402 157.034 301.615 157.034C298.115 157.034 295.278 159.873 295.278 163.375V210.971C295.278 214.473 292.44 217.312 288.94 217.312H276.978Z" fill="black"/>
<path fill-rule="evenodd" clip-rule="evenodd" d="M180.864 103.947C186.241 100.83 192.283 99.3125 198.885 99.3125C203.873 99.3125 209.183 99.2128 213.966 99.2128C218.204 99.2128 221.641 95.7772 221.641 91.5393V79.1779C221.641 75.3862 224.775 72.3125 228.641 72.3125H237.641C241.507 72.3125 244.641 75.3862 244.641 79.1779C244.639 91.5317 244.64 103.886 244.64 116.239C244.64 120.143 241.725 123.365 237.954 123.85H200.612C198.596 123.85 196.874 124.345 195.343 125.296C193.721 126.303 192.479 127.584 191.563 129.169C190.737 130.776 190.324 132.481 190.324 134.34C190.324 136.314 190.742 138.056 191.544 139.631C192.455 141.122 193.648 142.361 195.163 143.368C196.687 144.219 198.421 144.673 200.455 144.673H211.138C218.315 144.673 224.723 146.066 230.212 149.028C235.722 151.945 240.035 156.027 243.034 161.26C246.139 166.496 247.641 172.437 247.641 178.964C247.641 186.442 246.123 193.278 242.927 199.049C239.878 204.641 235.618 209.059 230.187 212.229L230.175 212.235L230.163 212.242C224.811 215.317 218.799 216.812 212.232 216.812H161.421C157.146 216.812 153.641 213.361 153.641 209.054V200.26C153.641 195.953 157.146 192.502 161.421 192.502H209.888C211.909 192.502 213.848 192.032 215.563 190.947C217.309 189.842 218.597 188.469 219.507 186.811L219.522 186.784L219.537 186.758C220.569 184.942 221.046 183.134 221.046 181.279C221.046 179.102 220.566 177.235 219.664 175.591C217.77 172.141 214.072 170.211 210.201 170.211L199.984 170.312C193.249 170.312 187.065 168.934 181.517 166.093L181.472 166.069L181.426 166.044C176.004 163.088 171.664 158.978 168.468 153.752C165.198 148.407 163.641 142.199 163.641 135.285C163.641 128.401 165.131 122.185 168.247 116.768C171.312 111.335 175.53 107.039 180.864 103.947Z" fill="black"/>
<path fill-rule="evenodd" clip-rule="evenodd" d="M183.221 45.3125H27.0602C22.679 45.3125 19.6406 49.051 19.6406 53.0048V61.6202C19.6406 65.574 22.679 69.3125 27.0602 69.3125C42.3292 69.3125 57.5988 69.3132 72.8674 69.3132C77.1054 69.3132 80.5409 72.7487 80.5409 76.9867C80.5409 112.36 80.605 147.734 80.6406 183.108C80.6406 189.274 81.9533 194.991 84.6432 200.18L84.6589 200.211L84.6752 200.241C87.4672 205.412 91.3527 209.591 96.2988 212.714L96.3284 212.732L96.3584 212.751C101.406 215.819 107.216 217.295 113.641 217.312L121.179 217.312C124.748 217.312 127.641 214.509 127.641 211.052V199.573C127.641 196.116 124.748 193.24 121.179 193.24H113.905C111.654 193.24 110.021 192.44 108.676 190.993C107.227 189.435 106.513 187.64 106.513 185.39C106.557 149.288 106.641 113.187 106.641 77.0857C106.641 72.8478 110.077 69.4122 114.315 69.4122C137.138 69.4122 160.276 69.3125 183.221 69.3125C187.602 69.3125 190.641 65.574 190.641 61.6202V53.0048C190.641 49.051 187.602 45.3125 183.221 45.3125Z" fill="black"/>
</svg>
