<svg width="754" height="293" viewBox="0 0 754 293" fill="none" xmlns="http://www.w3.org/2000/svg">
<path d="M678.561 211.003C678.561 213.763 680.794 216 683.548 216H697.662C700.416 216 702.649 213.763 702.649 211.003V113.96C702.649 111.2 700.416 108.963 697.662 108.963H683.548C680.794 108.963 678.561 111.2 678.561 113.96V211.003Z" fill="white"/>
<path d="M679.608 89.4444C682.68 92.5226 686.311 94.0617 690.5 94.0617C694.829 94.0617 698.459 92.5226 701.392 89.4444C704.464 86.3663 706 82.7284 706 78.5309C706 74.3333 704.464 70.6955 701.392 67.6173C698.459 64.5391 694.829 63 690.5 63C686.311 63 682.68 64.5391 679.608 67.6173C676.536 70.6955 675 74.3333 675 78.5309C675 82.7284 676.536 86.3663 679.608 89.4444Z" fill="white"/>
<path d="M634.229 175.103H658.778L658.951 226.632C658.951 236.191 656.118 243.74 650.452 249.282C644.786 254.823 637.066 257.593 627.293 257.593H573.059C570.265 257.593 568 255.378 568 252.646V242.177C568 239.445 570.265 237.23 573.059 237.23H622.831C626.514 237.23 629.347 236.121 631.33 233.905C633.454 231.688 634.517 228.918 634.517 225.593L634.229 175.103Z" fill="white"/>
<path fill-rule="evenodd" clip-rule="evenodd" d="M472.805 132.127H451.747C443.082 132.127 436.057 139.172 436.057 147.863V184.578C436.057 188.055 438.867 190.873 442.333 190.873C462.552 190.873 478.943 174.434 478.943 154.157V138.283C478.943 134.883 476.195 132.127 472.805 132.127ZM451.747 108C429.795 108 412 125.847 412 147.863V184.578C412 201.38 425.581 215 442.333 215C475.839 215 503 187.76 503 154.157V138.283C503 121.558 489.481 108 472.805 108H451.747Z" fill="white"/>
<path d="M480 142.548V211.452C480 213.411 482.132 215 484.762 215H498.238C500.868 215 503 213.411 503 211.452V142.548C503 140.589 500.868 139 498.238 139H484.762C482.132 139 480 140.589 480 142.548Z" fill="white"/>
<path fill-rule="evenodd" clip-rule="evenodd" d="M628.805 132.127H607.747C599.082 132.127 592.057 139.172 592.057 147.863V184.578C592.057 188.055 594.867 190.873 598.333 190.873C618.552 190.873 634.943 174.434 634.943 154.157V138.283C634.943 134.883 632.195 132.127 628.805 132.127ZM607.747 108C585.795 108 568 125.847 568 147.863V184.578C568 201.38 581.581 215 598.333 215C631.839 215 659 187.76 659 154.157V138.283C659 121.558 645.481 108 628.805 108H607.747Z" fill="white"/>
<path d="M636 142.548V211.452C636 213.411 638.132 215 640.762 215H654.238C656.868 215 659 213.411 659 211.452V142.548C659 140.589 656.868 139 654.238 139H640.762C638.132 139 636 140.589 636 142.548Z" fill="white"/>
<path d="M523.791 211.003C523.791 213.763 526.167 216 529.099 216H544.124C547.056 216 549.432 213.763 549.432 211.003V113.96C549.432 111.2 547.056 108.963 544.124 108.963H529.099C526.167 108.963 523.791 111.2 523.791 113.96V211.003Z" fill="white"/>
<path d="M524.905 89.4444C528.176 92.5226 532.041 94.0617 536.5 94.0617C541.108 94.0617 544.973 92.5226 548.095 89.4444C551.365 86.3663 553 82.7284 553 78.5309C553 74.3333 551.365 70.6955 548.095 67.6173C544.973 64.5391 541.108 63 536.5 63C532.041 63 528.176 64.5391 524.905 67.6173C521.635 70.6955 520 74.3333 520 78.5309C520 82.7284 521.635 86.3663 524.905 89.4444Z" fill="white"/>
<path fill-rule="evenodd" clip-rule="evenodd" d="M201.224 101.634C206.601 98.5177 212.643 97 219.244 97H234V96.8935C234.108 96.898 234.217 96.9003 234.326 96.9003C238.564 96.9003 241.999 93.4647 241.999 89.2268C241.999 89.1509 241.998 89.0753 241.996 89H242V76.8654C242 73.0737 245.134 70 249 70H258C261.866 70 265 73.0737 265 76.8654V113.7H264.996C264.998 113.776 264.999 113.851 264.999 113.927C264.999 117.83 262.085 121.053 258.313 121.537H220.971C218.955 121.537 217.233 122.032 215.702 122.983C214.08 123.99 212.839 125.272 211.923 126.856C211.096 128.463 210.684 130.169 210.684 132.028C210.684 134.002 211.102 135.744 211.904 137.319C212.814 138.809 214.007 140.048 215.522 141.055C217.046 141.907 218.781 142.36 220.814 142.36H228.932H230.344H231.498C238.675 142.36 245.082 143.754 250.572 146.716C256.082 149.633 260.394 153.714 263.393 158.947C266.498 164.183 268 170.125 268 176.651C268 184.13 266.482 190.966 263.287 196.737C260.237 202.329 255.978 206.747 250.546 209.916L250.534 209.923L250.522 209.93C245.17 213.004 239.158 214.5 232.592 214.5H181.781C177.506 214.5 174 211.049 174 206.742V197.948C174 193.641 177.506 190.189 181.781 190.189H230.248C232.605 190.189 234.413 189.633 235.851 188.68L235.886 188.657L235.922 188.634C237.668 187.53 238.957 186.157 239.867 184.498L239.881 184.472L239.896 184.445C240.929 182.63 241.405 180.821 241.405 178.966C241.405 176.79 240.925 174.923 240.023 173.279C239.128 171.648 237.876 170.356 236.191 169.366L236.155 169.346L236.12 169.324C234.645 168.416 232.839 167.898 230.56 167.898H228.932V168H220.343C213.609 168 207.424 166.622 201.877 163.78L201.831 163.757L201.786 163.732C196.364 160.776 192.024 156.666 188.827 151.44C185.557 146.095 184 139.887 184 132.973C184 126.089 185.491 119.872 188.606 114.455C191.671 109.023 195.889 104.726 201.224 101.634Z" fill="white"/>
<path fill-rule="evenodd" clip-rule="evenodd" d="M203.58 43H47.4196C43.0384 43 40 46.7385 40 50.6923V59.3077C40 63.2615 43.0384 67 47.4196 67H93V67.004C93.0753 67.0018 93.1509 67.0007 93.2268 67.0007C97.4647 67.0007 100.9 70.4362 100.9 74.6742C100.9 74.7833 100.898 74.892 100.893 75H101V120V168V180.795C101 186.962 102.313 192.679 105.003 197.868L105.018 197.898L105.035 197.929C107.827 203.099 111.712 207.278 116.658 210.401L116.688 210.42L116.718 210.438C121.765 213.507 127.576 214.982 134 215L134.116 215H137.784H141.538C145.107 215 148 212.197 148 208.739V197.261C148 193.803 145.107 191 141.538 191H139.284C138.802 190.906 138.3 190.856 137.784 190.856H134.264C132.014 190.856 130.38 190.128 129.035 188.681C127.587 187.123 126.872 185.327 126.872 183.077V168H127L127 75H127.004C127.002 74.9247 127.001 74.8491 127.001 74.7732C127.001 70.5353 130.436 67.0997 134.674 67.0997C134.783 67.0997 134.892 67.102 135 67.1065V67L203.58 67C207.962 67 211 63.2615 211 59.3077V50.6923C211 46.7385 207.962 43 203.58 43Z" fill="white"/>
<path d="M297.338 215C293.838 215 291 212.161 291 208.659V76.3411C291 72.839 293.838 70 297.338 70H309.299C312.799 70 315.637 72.839 315.637 76.3411V126.423C315.637 129.925 318.474 132.764 321.975 132.764H334.992C340.237 132.764 344.998 131.798 349.277 129.864C353.694 127.793 357.144 124.824 359.629 120.957C362.251 117.09 363.562 112.464 363.562 107.079V76.3411C363.562 72.839 366.4 70 369.9 70H381.861C385.362 70 388.199 72.839 388.199 76.3411V106.871C388.199 116.4 385.853 124.755 381.16 131.936C377.569 137.431 373.088 141.996 367.719 145.632C364.918 147.528 363.635 151.132 365.044 154.208L380.746 188.486C381.436 190.143 382.333 191.317 383.437 192.007C384.542 192.698 385.991 193.043 387.785 193.043H393.662C397.162 193.043 400 195.882 400 199.384V208.659C400 212.161 397.163 215 393.662 215H384.058C377.571 215 372.189 213.619 367.91 210.857C363.769 208.095 360.595 204.298 358.386 199.464L339.504 158.279C338.413 155.899 335.94 154.461 333.335 154.721V154.721C331.955 154.721 330.437 154.721 328.781 154.721H321.975C318.474 154.721 315.637 157.56 315.637 161.063V208.659C315.637 212.161 312.799 215 309.299 215H297.338Z" fill="white"/>
<path d="M477 205.2C479.778 203.4 480.333 204.6 480.333 207L482 198C479.407 201 477 205.2 477 205.2Z" fill="white"/>
<path d="M631.699 205C633.921 203.2 634.366 204.4 634.366 206.8L635.699 197.8C633.625 200.8 631.699 205 631.699 205Z" fill="white"/>
</svg>
