<svg width="401" height="55" viewBox="0 0 401 55" fill="none" xmlns="http://www.w3.org/2000/svg">
<g clip-path="url(#clip0_1228_914)">
<path d="M23.3206 34.2146L33.5041 34.5211L28.7088 25.2026L23.3206 34.2146Z" fill="black"/>
<path d="M1.15711 50.3223L39.6113 40.6658L12.604 40.8176L31.1407 6.92959L30.5535 4.5835L4.51154 17.9726L19.1037 14.3088L0.131592 46.2403L1.15711 50.3223Z" fill="black"/>
<path d="M25.2825 45.6535L52.983 48.0368L31.1606 17.4087L44.859 43.6168L25.2825 45.6535Z" fill="black"/>
</g>
<path d="M93.852 11.8889V43H88.839L74.1797 21.8086H73.9215V43H68.2856V11.8889H73.329L87.9731 33.0955H88.2466V11.8889H93.852ZM114.622 33.1866V19.6667H120.121V43H114.789V38.8529H114.546C114.019 40.1593 113.153 41.2277 111.948 42.0582C110.753 42.8886 109.28 43.3038 107.528 43.3038C105.998 43.3038 104.646 42.9646 103.472 42.286C102.307 41.5974 101.396 40.5998 100.737 39.2934C100.079 37.9769 99.7499 36.3869 99.7499 34.5234V19.6667H105.249V33.6727C105.249 35.1513 105.654 36.3261 106.464 37.197C107.275 38.068 108.338 38.5035 109.654 38.5035C110.465 38.5035 111.249 38.306 112.009 37.911C112.769 37.5161 113.391 36.9287 113.878 36.1489C114.374 35.3589 114.622 34.3715 114.622 33.1866ZM130.272 19.6667L134.982 28.2799L139.767 19.6667H145.585L138.551 31.3333L145.706 43H139.919L134.982 34.5994L130.09 43H124.257L131.366 31.3333L124.439 19.6667H130.272ZM161.49 19.6667V23.9201H148.076V19.6667H161.49ZM151.388 14.0764H156.887V35.9818C156.887 36.7211 156.998 37.2882 157.221 37.6832C157.454 38.068 157.758 38.3313 158.133 38.4731C158.507 38.6149 158.923 38.6858 159.378 38.6858C159.723 38.6858 160.037 38.6604 160.32 38.6098C160.614 38.5592 160.837 38.5136 160.989 38.4731L161.915 42.7721C161.621 42.8734 161.201 42.9848 160.654 43.1063C160.118 43.2279 159.459 43.2988 158.679 43.319C157.302 43.3595 156.062 43.1519 154.958 42.6962C153.854 42.2303 152.978 41.5113 152.33 40.5391C151.692 39.5668 151.378 38.3516 151.388 36.8932V14.0764ZM166.833 43V11.8889H172.469V38.2756H186.171V43H166.833ZM197.534 43.4709C196.056 43.4709 194.724 43.2076 193.539 42.681C192.364 42.1442 191.433 41.3543 190.744 40.3112C190.065 39.2681 189.726 37.9819 189.726 36.4527C189.726 35.1361 189.969 34.0475 190.455 33.1866C190.941 32.3258 191.605 31.6372 192.445 31.1207C193.286 30.6042 194.233 30.2143 195.286 29.951C196.349 29.6775 197.448 29.48 198.582 29.3585C199.95 29.2167 201.059 29.0901 201.909 28.9787C202.76 28.8572 203.378 28.6749 203.763 28.4319C204.157 28.1787 204.355 27.7888 204.355 27.2622V27.171C204.355 26.0266 204.016 25.1405 203.337 24.5126C202.659 23.8847 201.681 23.5707 200.405 23.5707C199.058 23.5707 197.99 23.8644 197.2 24.4518C196.42 25.0392 195.894 25.7329 195.62 26.533L190.486 25.8038C190.891 24.386 191.559 23.2011 192.491 22.2491C193.423 21.287 194.562 20.568 195.909 20.092C197.256 19.6059 198.744 19.3628 200.375 19.3628C201.499 19.3628 202.618 19.4945 203.732 19.7578C204.846 20.0211 205.864 20.4566 206.786 21.0642C207.707 21.6617 208.446 22.477 209.003 23.51C209.571 24.543 209.854 25.8342 209.854 27.3837V43H204.568V39.7947H204.385C204.051 40.4429 203.58 41.0505 202.973 41.6176C202.375 42.1746 201.621 42.6253 200.709 42.9696C199.808 43.3038 198.749 43.4709 197.534 43.4709ZM198.962 39.4301C200.066 39.4301 201.023 39.2124 201.833 38.7769C202.643 38.3313 203.266 37.7439 203.702 37.0148C204.147 36.2856 204.37 35.4906 204.37 34.6298V31.8802C204.198 32.022 203.904 32.1536 203.489 32.2752C203.084 32.3967 202.628 32.503 202.122 32.5942C201.616 32.6853 201.114 32.7663 200.618 32.8372C200.122 32.9081 199.691 32.9689 199.327 33.0195C198.506 33.1309 197.772 33.3132 197.124 33.5664C196.476 33.8196 195.964 34.174 195.59 34.6298C195.215 35.0754 195.028 35.6526 195.028 36.3615C195.028 37.3743 195.397 38.1389 196.137 38.6554C196.876 39.1719 197.818 39.4301 198.962 39.4301ZM215.627 43V11.8889H221.126V23.5252H221.354C221.637 22.958 222.037 22.3555 222.554 21.7174C223.07 21.0693 223.769 20.5174 224.65 20.0616C225.531 19.5958 226.655 19.3628 228.022 19.3628C229.825 19.3628 231.451 19.8236 232.899 20.7452C234.357 21.6567 235.512 23.0087 236.362 24.8012C237.223 26.5836 237.654 28.7711 237.654 31.3637C237.654 33.9259 237.233 36.1033 236.393 37.8958C235.552 39.6884 234.408 41.0556 232.96 41.9974C231.511 42.9392 229.871 43.4102 228.038 43.4102C226.701 43.4102 225.592 43.1874 224.711 42.7418C223.83 42.2962 223.121 41.7594 222.584 41.1315C222.057 40.4935 221.647 39.8909 221.354 39.3238H221.035V43H215.627ZM221.019 31.3333C221.019 32.8423 221.232 34.1639 221.657 35.2982C222.093 36.4324 222.716 37.3186 223.526 37.9566C224.346 38.5845 225.339 38.8984 226.503 38.8984C227.719 38.8984 228.736 38.5744 229.557 37.9262C230.377 37.2679 230.995 36.3717 231.41 35.2374C231.835 34.093 232.048 32.7917 232.048 31.3333C232.048 29.8851 231.84 28.599 231.425 27.4748C231.01 26.3507 230.392 25.4696 229.572 24.8316C228.752 24.1936 227.729 23.8746 226.503 23.8746C225.329 23.8746 224.331 24.1834 223.511 24.8012C222.69 25.419 222.068 26.2849 221.642 27.3989C221.227 28.5129 221.019 29.8244 221.019 31.3333ZM260.77 25.8342L255.757 26.3811C255.616 25.8747 255.368 25.3987 255.013 24.9531C254.669 24.5075 254.203 24.148 253.615 23.8746C253.028 23.6011 252.309 23.4644 251.458 23.4644C250.314 23.4644 249.352 23.7125 248.572 24.2088C247.802 24.705 247.423 25.3481 247.433 26.138C247.423 26.8166 247.671 27.3685 248.177 27.7938C248.694 28.2192 249.544 28.5686 250.729 28.842L254.709 29.6927C256.917 30.1687 258.558 30.9232 259.631 31.9562C260.715 32.9891 261.262 34.3411 261.272 36.0122C261.262 37.4806 260.831 38.7769 259.98 39.901C259.14 41.015 257.97 41.886 256.471 42.5139C254.973 43.1418 253.251 43.4557 251.306 43.4557C248.451 43.4557 246.152 42.8582 244.41 41.6632C242.668 40.458 241.63 38.782 241.296 36.635L246.658 36.1185C246.901 37.1717 247.418 37.9667 248.207 38.5035C248.997 39.0402 250.025 39.3086 251.291 39.3086C252.598 39.3086 253.646 39.0402 254.436 38.5035C255.236 37.9667 255.636 37.3034 255.636 36.5135C255.636 35.8451 255.378 35.2931 254.861 34.8576C254.355 34.4222 253.565 34.088 252.491 33.855L248.511 33.0195C246.273 32.5537 244.617 31.7688 243.544 30.6649C242.47 29.5509 241.939 28.1432 241.949 26.4418C241.939 25.0038 242.329 23.7581 243.119 22.7049C243.919 21.6415 245.028 20.8212 246.445 20.2439C247.873 19.6565 249.519 19.3628 251.382 19.3628C254.117 19.3628 256.269 19.9452 257.839 21.1098C259.418 22.2744 260.396 23.8492 260.77 25.8342ZM288.934 11.8889H294.525V33.7639C294.515 35.7691 294.089 37.4958 293.249 38.944C292.408 40.3821 291.233 41.491 289.724 42.2708C288.226 43.0405 286.479 43.4253 284.484 43.4253C282.661 43.4253 281.02 43.1013 279.562 42.4531C278.113 41.7948 276.964 40.8226 276.113 39.5365C275.263 38.2503 274.837 36.6502 274.837 34.7361H280.443C280.453 35.5767 280.635 36.3008 280.99 36.9084C281.354 37.5161 281.856 37.9819 282.494 38.306C283.132 38.6301 283.866 38.7921 284.696 38.7921C285.598 38.7921 286.362 38.6047 286.99 38.23C287.618 37.8452 288.094 37.2781 288.418 36.5286C288.752 35.7792 288.924 34.8576 288.934 33.7639V11.8889ZM307.11 43.4709C305.632 43.4709 304.3 43.2076 303.115 42.681C301.94 42.1442 301.009 41.3543 300.32 40.3112C299.642 39.2681 299.302 37.9819 299.302 36.4527C299.302 35.1361 299.545 34.0475 300.031 33.1866C300.518 32.3258 301.181 31.6372 302.022 31.1207C302.862 30.6042 303.809 30.2143 304.862 29.951C305.926 29.6775 307.024 29.48 308.159 29.3585C309.526 29.2167 310.635 29.0901 311.485 28.9787C312.336 28.8572 312.954 28.6749 313.339 28.4319C313.734 28.1787 313.931 27.7888 313.931 27.2622V27.171C313.931 26.0266 313.592 25.1405 312.913 24.5126C312.235 23.8847 311.258 23.5707 309.982 23.5707C308.635 23.5707 307.566 23.8644 306.776 24.4518C305.996 25.0392 305.47 25.7329 305.196 26.533L300.062 25.8038C300.467 24.386 301.135 23.2011 302.067 22.2491C302.999 21.287 304.138 20.568 305.485 20.092C306.832 19.6059 308.321 19.3628 309.951 19.3628C311.075 19.3628 312.194 19.4945 313.308 19.7578C314.422 20.0211 315.44 20.4566 316.362 21.0642C317.283 21.6617 318.023 22.477 318.58 23.51C319.147 24.543 319.43 25.8342 319.43 27.3837V43H314.144V39.7947H313.962C313.627 40.4429 313.156 41.0505 312.549 41.6176C311.951 42.1746 311.197 42.6253 310.285 42.9696C309.384 43.3038 308.326 43.4709 307.11 43.4709ZM308.538 39.4301C309.642 39.4301 310.599 39.2124 311.41 38.7769C312.22 38.3313 312.843 37.7439 313.278 37.0148C313.724 36.2856 313.946 35.4906 313.946 34.6298V31.8802C313.774 32.022 313.481 32.1536 313.065 32.2752C312.66 32.3967 312.205 32.503 311.698 32.5942C311.192 32.6853 310.69 32.7663 310.194 32.8372C309.698 32.9081 309.268 32.9689 308.903 33.0195C308.083 33.1309 307.348 33.3132 306.7 33.5664C306.052 33.8196 305.541 34.174 305.166 34.6298C304.791 35.0754 304.604 35.6526 304.604 36.3615C304.604 37.3743 304.974 38.1389 305.713 38.6554C306.452 39.1719 307.394 39.4301 308.538 39.4301ZM324.96 51.75V19.6667H330.368V23.5252H330.687C330.97 22.958 331.37 22.3555 331.887 21.7174C332.403 21.0693 333.102 20.5174 333.983 20.0616C334.864 19.5958 335.989 19.3628 337.356 19.3628C339.158 19.3628 340.784 19.8236 342.232 20.7452C343.69 21.6567 344.845 23.0087 345.696 24.8012C346.556 26.5836 346.987 28.7711 346.987 31.3637C346.987 33.9259 346.567 36.1033 345.726 37.8958C344.885 39.6884 343.741 41.0556 342.293 41.9974C340.845 42.9392 339.204 43.4102 337.371 43.4102C336.034 43.4102 334.925 43.1874 334.044 42.7418C333.163 42.2962 332.454 41.7594 331.917 41.1315C331.391 40.4935 330.981 39.8909 330.687 39.3238H330.459V51.75H324.96ZM330.353 31.3333C330.353 32.8423 330.565 34.1639 330.991 35.2982C331.426 36.4324 332.049 37.3186 332.859 37.9566C333.68 38.5845 334.672 38.8984 335.837 38.8984C337.052 38.8984 338.07 38.5744 338.89 37.9262C339.71 37.2679 340.328 36.3717 340.743 35.2374C341.169 34.093 341.381 32.7917 341.381 31.3333C341.381 29.8851 341.174 28.599 340.759 27.4748C340.343 26.3507 339.726 25.4696 338.905 24.8316C338.085 24.1936 337.062 23.8746 335.837 23.8746C334.662 23.8746 333.664 24.1834 332.844 24.8012C332.024 25.419 331.401 26.2849 330.976 27.3989C330.56 28.5129 330.353 29.8244 330.353 31.3333ZM358.41 43.4709C356.932 43.4709 355.6 43.2076 354.415 42.681C353.24 42.1442 352.309 41.3543 351.62 40.3112C350.942 39.2681 350.602 37.9819 350.602 36.4527C350.602 35.1361 350.845 34.0475 351.331 33.1866C351.818 32.3258 352.481 31.6372 353.321 31.1207C354.162 30.6042 355.109 30.2143 356.162 29.951C357.226 29.6775 358.324 29.48 359.459 29.3585C360.826 29.2167 361.935 29.0901 362.785 28.9787C363.636 28.8572 364.254 28.6749 364.639 28.4319C365.034 28.1787 365.231 27.7888 365.231 27.2622V27.171C365.231 26.0266 364.892 25.1405 364.213 24.5126C363.535 23.8847 362.558 23.5707 361.282 23.5707C359.935 23.5707 358.866 23.8644 358.076 24.4518C357.296 25.0392 356.77 25.7329 356.496 26.533L351.362 25.8038C351.767 24.386 352.435 23.2011 353.367 22.2491C354.299 21.287 355.438 20.568 356.785 20.092C358.132 19.6059 359.621 19.3628 361.251 19.3628C362.375 19.3628 363.494 19.4945 364.608 19.7578C365.722 20.0211 366.74 20.4566 367.662 21.0642C368.583 21.6617 369.323 22.477 369.88 23.51C370.447 24.543 370.73 25.8342 370.73 27.3837V43H365.444V39.7947H365.262C364.927 40.4429 364.456 41.0505 363.849 41.6176C363.251 42.1746 362.497 42.6253 361.585 42.9696C360.684 43.3038 359.626 43.4709 358.41 43.4709ZM359.838 39.4301C360.942 39.4301 361.899 39.2124 362.709 38.7769C363.52 38.3313 364.142 37.7439 364.578 37.0148C365.024 36.2856 365.246 35.4906 365.246 34.6298V31.8802C365.074 32.022 364.78 32.1536 364.365 32.2752C363.96 32.3967 363.504 32.503 362.998 32.5942C362.492 32.6853 361.99 32.7663 361.494 32.8372C360.998 32.9081 360.568 32.9689 360.203 33.0195C359.383 33.1309 358.648 33.3132 358 33.5664C357.352 33.8196 356.841 34.174 356.466 34.6298C356.091 35.0754 355.904 35.6526 355.904 36.3615C355.904 37.3743 356.274 38.1389 357.013 38.6554C357.752 39.1719 358.694 39.4301 359.838 39.4301ZM381.759 29.3281V43H376.26V19.6667H381.516V23.6315H381.789C382.326 22.3251 383.182 21.287 384.357 20.5174C385.541 19.7477 387.005 19.3628 388.747 19.3628C390.357 19.3628 391.76 19.7072 392.955 20.3958C394.16 21.0845 395.092 22.082 395.75 23.3885C396.418 24.6949 396.747 26.2798 396.737 28.1432V43H391.238V28.9939C391.238 27.4343 390.833 26.214 390.023 25.3329C389.223 24.4518 388.114 24.0113 386.696 24.0113C385.734 24.0113 384.878 24.224 384.129 24.6493C383.389 25.0645 382.807 25.6671 382.382 26.457C381.967 27.247 381.759 28.204 381.759 29.3281Z" fill="black"/>
<defs>
<clipPath id="clip0_1228_914">
<rect width="52.9948" height="45.8333" fill="white" transform="translate(0 4.5835)"/>
</clipPath>
</defs>
</svg>
