<svg width="480" height="271" viewBox="0 0 480 271" fill="none" xmlns="http://www.w3.org/2000/svg">
<rect width="480" height="270.423" fill="white"/>
<g clip-path="url(#clip0_1228_921)">
<path d="M63.3213 142.215L73.5049 142.521L68.7096 133.203L63.3213 142.215Z" fill="black"/>
<path d="M41.1576 158.322L79.6118 148.666L52.6045 148.818L71.1412 114.93L70.554 112.583L44.512 125.973L59.1042 122.309L40.1321 154.24L41.1576 158.322Z" fill="black"/>
<path d="M65.2832 153.653L92.9837 156.037L71.1613 125.409L84.8598 151.617L65.2832 153.653Z" fill="black"/>
</g>
<path d="M133.852 119.889V151H128.839L114.18 129.809H113.921V151H108.286V119.889H113.329L127.973 141.095H128.247V119.889H133.852ZM154.622 141.187V127.667H160.121V151H154.789V146.853H154.546C154.019 148.159 153.153 149.228 151.948 150.058C150.753 150.889 149.28 151.304 147.528 151.304C145.998 151.304 144.646 150.965 143.472 150.286C142.307 149.597 141.396 148.6 140.737 147.293C140.079 145.977 139.75 144.387 139.75 142.523V127.667H145.249V141.673C145.249 143.151 145.654 144.326 146.464 145.197C147.275 146.068 148.338 146.503 149.654 146.503C150.465 146.503 151.249 146.306 152.009 145.911C152.769 145.516 153.391 144.929 153.878 144.149C154.374 143.359 154.622 142.372 154.622 141.187ZM170.272 127.667L174.982 136.28L179.767 127.667H185.585L178.551 139.333L185.706 151H179.919L174.982 142.599L170.09 151H164.257L171.366 139.333L164.439 127.667H170.272ZM201.49 127.667V131.92H188.076V127.667H201.49ZM191.388 122.076H196.887V143.982C196.887 144.721 196.998 145.288 197.221 145.683C197.454 146.068 197.758 146.331 198.133 146.473C198.507 146.615 198.923 146.686 199.378 146.686C199.723 146.686 200.037 146.66 200.32 146.61C200.614 146.559 200.837 146.514 200.989 146.473L201.915 150.772C201.621 150.873 201.201 150.985 200.654 151.106C200.118 151.228 199.459 151.299 198.679 151.319C197.302 151.36 196.062 151.152 194.958 150.696C193.854 150.23 192.978 149.511 192.33 148.539C191.692 147.567 191.378 146.352 191.388 144.893V122.076ZM206.833 151V119.889H212.469V146.276H226.171V151H206.833ZM237.534 151.471C236.056 151.471 234.724 151.208 233.539 150.681C232.364 150.144 231.433 149.354 230.744 148.311C230.065 147.268 229.726 145.982 229.726 144.453C229.726 143.136 229.969 142.047 230.455 141.187C230.941 140.326 231.605 139.637 232.445 139.121C233.286 138.604 234.233 138.214 235.286 137.951C236.349 137.678 237.448 137.48 238.582 137.359C239.95 137.217 241.059 137.09 241.909 136.979C242.76 136.857 243.378 136.675 243.763 136.432C244.157 136.179 244.355 135.789 244.355 135.262V135.171C244.355 134.027 244.016 133.14 243.337 132.513C242.659 131.885 241.681 131.571 240.405 131.571C239.058 131.571 237.99 131.864 237.2 132.452C236.42 133.039 235.894 133.733 235.62 134.533L230.486 133.804C230.891 132.386 231.559 131.201 232.491 130.249C233.423 129.287 234.562 128.568 235.909 128.092C237.256 127.606 238.744 127.363 240.375 127.363C241.499 127.363 242.618 127.495 243.732 127.758C244.846 128.021 245.864 128.457 246.786 129.064C247.707 129.662 248.446 130.477 249.003 131.51C249.571 132.543 249.854 133.834 249.854 135.384V151H244.568V147.795H244.385C244.051 148.443 243.58 149.05 242.973 149.618C242.375 150.175 241.621 150.625 240.709 150.97C239.808 151.304 238.749 151.471 237.534 151.471ZM238.962 147.43C240.066 147.43 241.023 147.212 241.833 146.777C242.643 146.331 243.266 145.744 243.702 145.015C244.147 144.286 244.37 143.491 244.37 142.63V139.88C244.198 140.022 243.904 140.154 243.489 140.275C243.084 140.397 242.628 140.503 242.122 140.594C241.616 140.685 241.114 140.766 240.618 140.837C240.122 140.908 239.691 140.969 239.327 141.02C238.506 141.131 237.772 141.313 237.124 141.566C236.476 141.82 235.964 142.174 235.59 142.63C235.215 143.075 235.028 143.653 235.028 144.362C235.028 145.374 235.397 146.139 236.137 146.655C236.876 147.172 237.818 147.43 238.962 147.43ZM255.627 151V119.889H261.126V131.525H261.354C261.637 130.958 262.037 130.355 262.554 129.717C263.07 129.069 263.769 128.517 264.65 128.062C265.531 127.596 266.655 127.363 268.022 127.363C269.825 127.363 271.451 127.824 272.899 128.745C274.357 129.657 275.512 131.009 276.362 132.801C277.223 134.584 277.654 136.771 277.654 139.364C277.654 141.926 277.233 144.103 276.393 145.896C275.552 147.688 274.408 149.056 272.96 149.997C271.511 150.939 269.871 151.41 268.038 151.41C266.701 151.41 265.592 151.187 264.711 150.742C263.83 150.296 263.121 149.759 262.584 149.132C262.057 148.493 261.647 147.891 261.354 147.324H261.035V151H255.627ZM261.019 139.333C261.019 140.842 261.232 142.164 261.657 143.298C262.093 144.432 262.716 145.319 263.526 145.957C264.346 146.584 265.339 146.898 266.503 146.898C267.719 146.898 268.736 146.574 269.557 145.926C270.377 145.268 270.995 144.372 271.41 143.237C271.835 142.093 272.048 140.792 272.048 139.333C272.048 137.885 271.84 136.599 271.425 135.475C271.01 134.351 270.392 133.47 269.572 132.832C268.752 132.194 267.729 131.875 266.503 131.875C265.329 131.875 264.331 132.183 263.511 132.801C262.69 133.419 262.068 134.285 261.642 135.399C261.227 136.513 261.019 137.824 261.019 139.333ZM300.77 133.834L295.757 134.381C295.616 133.875 295.368 133.399 295.013 132.953C294.669 132.508 294.203 132.148 293.615 131.875C293.028 131.601 292.309 131.464 291.458 131.464C290.314 131.464 289.352 131.713 288.572 132.209C287.802 132.705 287.423 133.348 287.433 134.138C287.423 134.817 287.671 135.368 288.177 135.794C288.694 136.219 289.544 136.569 290.729 136.842L294.709 137.693C296.917 138.169 298.558 138.923 299.631 139.956C300.715 140.989 301.262 142.341 301.272 144.012C301.262 145.481 300.831 146.777 299.98 147.901C299.14 149.015 297.97 149.886 296.471 150.514C294.973 151.142 293.251 151.456 291.306 151.456C288.451 151.456 286.152 150.858 284.41 149.663C282.668 148.458 281.63 146.782 281.296 144.635L286.658 144.118C286.901 145.172 287.418 145.967 288.207 146.503C288.997 147.04 290.025 147.309 291.291 147.309C292.598 147.309 293.646 147.04 294.436 146.503C295.236 145.967 295.636 145.303 295.636 144.513C295.636 143.845 295.378 143.293 294.861 142.858C294.355 142.422 293.565 142.088 292.491 141.855L288.511 141.02C286.273 140.554 284.617 139.769 283.544 138.665C282.47 137.551 281.939 136.143 281.949 134.442C281.939 133.004 282.329 131.758 283.119 130.705C283.919 129.641 285.028 128.821 286.445 128.244C287.873 127.657 289.519 127.363 291.382 127.363C294.117 127.363 296.269 127.945 297.839 129.11C299.418 130.274 300.396 131.849 300.77 133.834ZM328.934 119.889H334.525V141.764C334.515 143.769 334.089 145.496 333.249 146.944C332.408 148.382 331.233 149.491 329.724 150.271C328.226 151.041 326.479 151.425 324.484 151.425C322.661 151.425 321.02 151.101 319.562 150.453C318.113 149.795 316.964 148.823 316.113 147.536C315.263 146.25 314.837 144.65 314.837 142.736H320.443C320.453 143.577 320.635 144.301 320.99 144.908C321.354 145.516 321.856 145.982 322.494 146.306C323.132 146.63 323.866 146.792 324.696 146.792C325.598 146.792 326.362 146.605 326.99 146.23C327.618 145.845 328.094 145.278 328.418 144.529C328.752 143.779 328.924 142.858 328.934 141.764V119.889ZM347.11 151.471C345.632 151.471 344.3 151.208 343.115 150.681C341.94 150.144 341.009 149.354 340.32 148.311C339.642 147.268 339.302 145.982 339.302 144.453C339.302 143.136 339.545 142.047 340.031 141.187C340.518 140.326 341.181 139.637 342.022 139.121C342.862 138.604 343.809 138.214 344.862 137.951C345.926 137.678 347.024 137.48 348.159 137.359C349.526 137.217 350.635 137.09 351.485 136.979C352.336 136.857 352.954 136.675 353.339 136.432C353.734 136.179 353.931 135.789 353.931 135.262V135.171C353.931 134.027 353.592 133.14 352.913 132.513C352.235 131.885 351.258 131.571 349.982 131.571C348.635 131.571 347.566 131.864 346.776 132.452C345.996 133.039 345.47 133.733 345.196 134.533L340.062 133.804C340.467 132.386 341.135 131.201 342.067 130.249C342.999 129.287 344.138 128.568 345.485 128.092C346.832 127.606 348.321 127.363 349.951 127.363C351.075 127.363 352.194 127.495 353.308 127.758C354.422 128.021 355.44 128.457 356.362 129.064C357.283 129.662 358.023 130.477 358.58 131.51C359.147 132.543 359.43 133.834 359.43 135.384V151H354.144V147.795H353.962C353.627 148.443 353.156 149.05 352.549 149.618C351.951 150.175 351.197 150.625 350.285 150.97C349.384 151.304 348.326 151.471 347.11 151.471ZM348.538 147.43C349.642 147.43 350.599 147.212 351.41 146.777C352.22 146.331 352.843 145.744 353.278 145.015C353.724 144.286 353.946 143.491 353.946 142.63V139.88C353.774 140.022 353.481 140.154 353.065 140.275C352.66 140.397 352.205 140.503 351.698 140.594C351.192 140.685 350.69 140.766 350.194 140.837C349.698 140.908 349.268 140.969 348.903 141.02C348.083 141.131 347.348 141.313 346.7 141.566C346.052 141.82 345.541 142.174 345.166 142.63C344.791 143.075 344.604 143.653 344.604 144.362C344.604 145.374 344.974 146.139 345.713 146.655C346.452 147.172 347.394 147.43 348.538 147.43ZM364.96 159.75V127.667H370.368V131.525H370.687C370.97 130.958 371.37 130.355 371.887 129.717C372.403 129.069 373.102 128.517 373.983 128.062C374.864 127.596 375.989 127.363 377.356 127.363C379.158 127.363 380.784 127.824 382.232 128.745C383.69 129.657 384.845 131.009 385.696 132.801C386.556 134.584 386.987 136.771 386.987 139.364C386.987 141.926 386.567 144.103 385.726 145.896C384.885 147.688 383.741 149.056 382.293 149.997C380.845 150.939 379.204 151.41 377.371 151.41C376.034 151.41 374.925 151.187 374.044 150.742C373.163 150.296 372.454 149.759 371.917 149.132C371.391 148.493 370.981 147.891 370.687 147.324H370.459V159.75H364.96ZM370.353 139.333C370.353 140.842 370.565 142.164 370.991 143.298C371.426 144.432 372.049 145.319 372.859 145.957C373.68 146.584 374.672 146.898 375.837 146.898C377.052 146.898 378.07 146.574 378.89 145.926C379.71 145.268 380.328 144.372 380.743 143.237C381.169 142.093 381.381 140.792 381.381 139.333C381.381 137.885 381.174 136.599 380.759 135.475C380.343 134.351 379.726 133.47 378.905 132.832C378.085 132.194 377.062 131.875 375.837 131.875C374.662 131.875 373.664 132.183 372.844 132.801C372.024 133.419 371.401 134.285 370.976 135.399C370.56 136.513 370.353 137.824 370.353 139.333ZM398.41 151.471C396.932 151.471 395.6 151.208 394.415 150.681C393.24 150.144 392.309 149.354 391.62 148.311C390.942 147.268 390.602 145.982 390.602 144.453C390.602 143.136 390.845 142.047 391.331 141.187C391.818 140.326 392.481 139.637 393.321 139.121C394.162 138.604 395.109 138.214 396.162 137.951C397.226 137.678 398.324 137.48 399.459 137.359C400.826 137.217 401.935 137.09 402.785 136.979C403.636 136.857 404.254 136.675 404.639 136.432C405.034 136.179 405.231 135.789 405.231 135.262V135.171C405.231 134.027 404.892 133.14 404.213 132.513C403.535 131.885 402.558 131.571 401.282 131.571C399.935 131.571 398.866 131.864 398.076 132.452C397.296 133.039 396.77 133.733 396.496 134.533L391.362 133.804C391.767 132.386 392.435 131.201 393.367 130.249C394.299 129.287 395.438 128.568 396.785 128.092C398.132 127.606 399.621 127.363 401.251 127.363C402.375 127.363 403.494 127.495 404.608 127.758C405.722 128.021 406.74 128.457 407.662 129.064C408.583 129.662 409.323 130.477 409.88 131.51C410.447 132.543 410.73 133.834 410.73 135.384V151H405.444V147.795H405.262C404.927 148.443 404.456 149.05 403.849 149.618C403.251 150.175 402.497 150.625 401.585 150.97C400.684 151.304 399.626 151.471 398.41 151.471ZM399.838 147.43C400.942 147.43 401.899 147.212 402.709 146.777C403.52 146.331 404.142 145.744 404.578 145.015C405.024 144.286 405.246 143.491 405.246 142.63V139.88C405.074 140.022 404.78 140.154 404.365 140.275C403.96 140.397 403.504 140.503 402.998 140.594C402.492 140.685 401.99 140.766 401.494 140.837C400.998 140.908 400.568 140.969 400.203 141.02C399.383 141.131 398.648 141.313 398 141.566C397.352 141.82 396.841 142.174 396.466 142.63C396.091 143.075 395.904 143.653 395.904 144.362C395.904 145.374 396.274 146.139 397.013 146.655C397.752 147.172 398.694 147.43 399.838 147.43ZM421.759 137.328V151H416.26V127.667H421.516V131.632H421.789C422.326 130.325 423.182 129.287 424.357 128.517C425.541 127.748 427.005 127.363 428.747 127.363C430.357 127.363 431.76 127.707 432.955 128.396C434.16 129.084 435.092 130.082 435.75 131.388C436.418 132.695 436.747 134.28 436.737 136.143V151H431.238V136.994C431.238 135.434 430.833 134.214 430.023 133.333C429.223 132.452 428.114 132.011 426.696 132.011C425.734 132.011 424.878 132.224 424.129 132.649C423.389 133.065 422.807 133.667 422.382 134.457C421.967 135.247 421.759 136.204 421.759 137.328Z" fill="black"/>
<defs>
<clipPath id="clip0_1228_921">
<rect width="52.9948" height="45.8333" fill="white" transform="translate(40 112.583)"/>
</clipPath>
</defs>
</svg>
