<?xml version="1.0" encoding="UTF-8"?>
<svg id="_レイヤー_1" data-name="レイヤー 1" xmlns="http://www.w3.org/2000/svg" viewBox="0 0 460.33 92.17">
  <defs>
    <style>
      .cls-1 {
        fill: #333;
        stroke-width: 0px;
      }
    </style>
  </defs>
  <g>
    <path class="cls-1" d="M243.84,24.11c7.45,0,13.46,1.95,18.02,5.85,2.56,2.17,4.48,4.82,5.76,7.96,1.05,2.58,1.58,5.36,1.58,8.33,0,4.02-1.15,7.79-3.44,11.3-2.52,3.88-6.02,6.68-10.5,8.39-3.34,1.28-7.13,1.92-11.36,1.92-7.41,0-13.39-1.95-17.93-5.85-2.54-2.19-4.46-4.84-5.76-7.96-1.05-2.56-1.58-5.25-1.58-8.08,0-4.19,1.13-8.05,3.41-11.58,2.48-3.82,5.99-6.6,10.53-8.36,3.18-1.22,6.94-1.86,11.27-1.92ZM243.84,28.35c-6.34,0-11.35,1.78-15.05,5.33-3.39,3.26-5.08,7.36-5.08,12.29s1.69,9.06,5.08,12.32c3.67,3.55,8.71,5.33,15.11,5.33s11.48-1.77,15.17-5.33c3.36-3.26,5.05-7.29,5.05-12.07,0-5.18-1.68-9.36-5.05-12.54-2.02-1.9-4.19-3.23-6.5-3.99-2.56-.87-5.47-1.31-8.73-1.33Z"/>
    <path class="cls-1" d="M141.15,23.27c-.15.63-.37,1.06-.66,1.27-.29.21-.78.32-1.47.32h-34.93c-.69,0-1.19-.11-1.47-.32-.29-.21-.51-.63-.66-1.27h-.79v7.2h.79c.15-.64.37-1.06.66-1.27.29-.21.78-.31,1.47-.31h15.03v35.31c0,.69-.11,1.18-.32,1.46-.21.28-.64.5-1.26.67v.79h8.03v-.79c-.63-.16-1.05-.39-1.26-.68-.21-.29-.32-.77-.32-1.45V28.88h15.03c.69,0,1.19.1,1.47.31.29.21.51.63.66,1.27h.79v-7.2h-.79Z"/>
    <path class="cls-1" d="M413.79,23.27c-.15.63-.37,1.06-.66,1.27-.29.21-.78.32-1.47.32h-34.93c-.69,0-1.19-.11-1.47-.32-.29-.21-.51-.63-.66-1.27h-.79v7.2h.79c.15-.64.37-1.06.66-1.27.29-.21.78-.31,1.47-.31h15.03v35.31c0,.69-.11,1.18-.32,1.46-.21.28-.64.5-1.26.67v.79h8.03v-.79c-.63-.16-1.05-.39-1.26-.68-.21-.29-.32-.77-.32-1.45V28.88h15.03c.69,0,1.19.1,1.47.31.29.21.51.63.66,1.27h.79v-7.2h-.79Z"/>
    <path class="cls-1" d="M459.04,61.5c-.15.63-.37,1.05-.66,1.26-.29.21-.78.32-1.47.32h-27.82v-15.7h18.22c.69,0,1.18.11,1.47.32.29.21.51.64.66,1.26h.79v-7.2h-.79c-.15.63-.37,1.05-.66,1.26-.29.21-.78.32-1.47.32h-18.22v-14.49h27.42c.69,0,1.18.11,1.47.33.29.22.51.64.66,1.26h.79v-7.2h-.79c-.17.63-.39,1.06-.67,1.27-.28.21-.77.32-1.46.32h-33.87v.79c.63.17,1.05.39,1.26.67.21.28.32.77.32,1.46v36.42c0,.69-.1,1.18-.31,1.46-.21.28-.63.5-1.28.67v.79h34.25c.69,0,1.18.11,1.47.32.29.21.52.64.68,1.26h.79v-1.59h0v-5.61h-.79Z"/>
    <path class="cls-1" d="M372.41,65.48c-.2-.24-.56-.89-1.08-1.96l-.42-.9c-.24-.5-.52-1.08-.82-1.73l-3.73-8.09h0s-11.1-24.11-11.1-24.11c0,0,0,0,0,0l-.35-.77c-.3-.64-.45-1.06-.45-1.24,0-.43.4-.78,1.21-1.04v-.79h-9.19v.79c.81.21,1.21.54,1.21.97,0,.23-.15.67-.44,1.31l-.36.77h0s-15.48,33.41-15.48,33.41c-.1.23-.21.45-.3.65l-.4.87c-.47.98-.85,1.63-1.16,1.95-.36.38-.87.63-1.55.74v.79h8.54v-.79c-.98-.16-1.47-.5-1.47-.99,0-.25.14-.68.42-1.29h0l.36-.77h0l3.72-8.02h22.61l3.46,7.59c.11.22.2.43.28.62l.33.73c.21.49.32.84.32,1.04,0,.59-.48.96-1.44,1.09v.79h9.1v-.79c-.94-.23-1.55-.51-1.83-.84ZM341.38,51.23l9.51-20.88,9.52,20.88h-19.02Z"/>
    <path class="cls-1" d="M215.47,24.85h-6.97v.79c.93.18,1.39.59,1.39,1.21,0,.37-.19,1.12-.56,2.24l-.36,1.06s-.03.09-.05.14l-3.99,11.75h0s-6.14,18.11-6.14,18.11l-10.24-29.86c-.19-.55-.35-1.02-.48-1.42l-.28-.81c-.19-.61-.29-1-.29-1.16,0-.61.47-1.03,1.41-1.26v-.79h-9.7v.79c.94.17,1.41.54,1.41,1.14,0,.14-.1.51-.29,1.11l-.26.76c-.14.45-.32.99-.54,1.64l-10.45,29.86-7.15-20.28h0s-3.38-9.58-3.38-9.58c-.15-.44-.29-.83-.4-1.17l-.3-.86h0c-.23-.72-.35-1.18-.35-1.37,0-.73.5-1.15,1.49-1.26v-.79h-9v.79c.79.15,1.36.44,1.7.88.29.37.68,1.21,1.19,2.51l.38,1.05c.11.28.22.57.33.87l11.31,31.12s.03.09.05.13l.36.98h0c.34.95.51,1.59.51,1.93,0,.63-.47,1.03-1.41,1.21v.79h9.11v-.79c-.94-.26-1.41-.67-1.41-1.21,0-.31.11-.82.33-1.52l.3-.88c.06-.2.13-.41.21-.64l10.71-30.89,11.06,31.14c.12.32.22.61.3.86l.28.79c.17.51.25.84.25.99,0,.69-.47,1.15-1.41,1.36v.79h8.95v-.79c-.94-.23-1.41-.68-1.41-1.34,0-.31.17-.95.5-1.91l3.95-11.37,7.21-20.76c.1-.29.2-.57.29-.84l.37-1.05c.44-1.24.83-2.06,1.14-2.46.37-.47.96-.79,1.77-.95v-.79h-1.45Z"/>
    <path class="cls-1" d="M321.49,54.37v-4.89c0-.69.11-1.18.32-1.46.21-.28.64-.5,1.26-.67v-.79h-16.96c-.69,0-1.19-.11-1.47-.32-.29-.21-.51-.64-.66-1.26h-.79v7.2h.79c.15-.63.37-1.05.66-1.26.29-.21.78-.32,1.47-.32h10.73v7.8c-1.82,1.65-4.05,2.94-6.7,3.85-2.65.92-5.44,1.38-8.37,1.38-5.55,0-10.11-1.49-13.68-4.49-3.88-3.24-5.82-7.59-5.82-13.05s2.03-10.06,6.1-13.36c3.55-2.91,7.91-4.36,13.09-4.36,4.46,0,8.81,1.15,13.06,3.45,2.21,1.17,3.31,2.08,3.31,2.71,0,.31-.05.64-.35,1.05l.8.56,4.35-6.92-.84-.56c-.49.73-.91,1-1.33,1-.21,0-.75-.25-1.64-.74-3.06-1.71-5.9-2.94-8.55-3.68-2.64-.74-5.51-1.11-8.61-1.11-3.53,0-6.83.55-9.91,1.64-4.36,1.57-7.82,4.06-10.4,7.46-2.79,3.7-4.18,7.93-4.18,12.69,0,3.32.71,6.48,2.14,9.47,1.26,2.62,2.96,4.87,5.11,6.75,4.35,3.82,10.06,5.73,17.12,5.73,5.74,0,10.85-1.26,15.33-3.78,1.47-.82,3.01-1.89,4.61-3.18.52-.42,1.05-.86,1.59-1.35v-.69c-.63-.16-1.05-.39-1.26-.67-.21-.28-.32-.77-.32-1.46v-2.36Z"/>
  </g>
  <g>
    <rect class="cls-1" x="38.91" y="0" width="3.77" height="91.97"/>
    <polygon class="cls-1" points="19.33 30.17 19.33 11.3 15.56 13.47 15.56 28.29 19.33 30.17"/>
    <polygon class="cls-1" points="27.11 34.06 27.11 6.81 23.35 8.98 23.35 32.18 27.11 34.06"/>
    <polygon class="cls-1" points="34.89 37.95 34.89 2.32 31.13 4.49 31.13 36.07 34.89 37.95"/>
    <polygon class="cls-1" points="11.55 26.28 11.55 15.79 7.78 17.96 7.78 24.39 11.55 26.28"/>
    <polygon class="cls-1" points="7.78 67.57 7.78 74.01 11.55 76.18 11.55 65.69 7.78 67.57"/>
    <polygon class="cls-1" points="31.13 55.9 31.13 87.48 34.89 89.65 34.89 54.02 31.13 55.9"/>
    <polygon class="cls-1" points="15.56 63.68 15.56 78.5 19.33 80.67 19.33 61.8 15.56 63.68"/>
    <polygon class="cls-1" points="23.35 59.79 23.35 82.99 27.11 85.16 27.11 57.91 23.35 59.79"/>
    <polygon class="cls-1" points="0 22.45 0 49.75 9.66 49.75 6.28 45.98 3.77 45.98 3.77 20.28 0 22.45"/>
    <polygon class="cls-1" points="0 57.75 0 69.52 3.77 71.69 3.77 55.87 0 57.75"/>
    <polygon class="cls-1" points="62.26 30.17 62.26 11.3 66.02 13.47 66.02 28.29 62.26 30.17"/>
    <polygon class="cls-1" points="54.48 34.06 54.48 6.81 58.24 8.98 58.24 32.18 54.48 34.06"/>
    <polygon class="cls-1" points="46.69 37.95 46.69 2.32 50.46 4.49 50.46 36.07 46.69 37.95"/>
    <polygon class="cls-1" points="70.04 26.28 70.04 15.79 73.81 17.96 73.81 24.39 70.04 26.28"/>
    <polygon class="cls-1" points="73.81 67.57 73.81 74.01 70.04 76.18 70.04 65.69 73.81 67.57"/>
    <polygon class="cls-1" points="50.46 55.9 50.46 87.48 46.69 89.65 46.69 54.02 50.46 55.9"/>
    <polygon class="cls-1" points="66.02 63.68 66.02 78.5 62.26 80.67 62.26 61.8 66.02 63.68"/>
    <polygon class="cls-1" points="58.24 59.79 58.24 82.99 54.48 85.16 54.48 57.91 58.24 59.79"/>
    <polygon class="cls-1" points="81.59 22.45 81.59 49.75 71.92 49.75 75.31 45.98 77.82 45.98 77.82 20.28 81.59 22.45"/>
    <polygon class="cls-1" points="81.59 57.75 81.59 69.52 77.82 71.69 77.82 55.87 81.59 57.75"/>
    <polygon class="cls-1" points="63.2 38.89 63.2 40.49 70.04 40.49 70.04 35.47 63.2 38.89"/>
    <polygon class="cls-1" points="18.39 38.89 18.39 40.49 11.55 40.49 11.55 35.47 18.39 38.89"/>
  </g>
</svg>