<svg xmlns="http://www.w3.org/2000/svg" viewBox="0 0 963.85 173.21"><title>logo_vfj</title><g id="レイヤー_2" data-name="レイヤー 2"><g id="レイヤー_1-2" data-name="レイヤー 1"><path d="M156.33,87.35a43.67,43.67,0,1,0-40.52-60L100,0,70,52l30,52,40.3-69.25h40L100,173.2,50,86.6,0,173.21H200L150.18,86.91A44,44,0,0,0,156.33,87.35Z" style="fill:#34495e"/><path d="M373.14,137.1H356.89v-5.46c-2.73,4.42-6.24,6.63-14.82,6.63-13.13,0-23.92-6.5-23.92-25.61V72.1h16.64v38.09c0,10.27,3.64,13.78,10.53,13.78,7.67,0,11.31-4.68,11.31-13.65V72.1h16.51Z" style="fill:#34495e"/><path d="M524.72,47.4V62.87H487V85.1h33.8v15.34H487V137.1h-18.2V47.4Z" style="fill:#34495e"/><path d="M621.44,90.43c-2.86-3.38-5.72-5.2-12.74-5.2-4.29,0-8.19,1.3-8.19,5.07s3.51,5.33,10.4,6.37c16,2.47,24.05,8.58,24.05,21.45,0,12.48-8.71,20.15-25.48,20.15-13.26,0-21.32-3.25-26.91-10.79l12.74-9.1c2.6,3.51,5.85,5.59,13.91,5.59,5.72,0,9.23-1.95,9.23-5.33,0-4-2.86-5.33-11.05-6.63C593.88,109.8,584,104.08,584,91c0-12.35,8.84-20,25.09-20,10.66,0,19.5,2.47,24.57,10.79Z" style="fill:#34495e"/><path d="M675.51,116.43a14.93,14.93,0,0,0,12.22,6.5c8.71,0,13.39-4.68,13.39-20.28V47.4h18.2v55.25c0,25.87-11.57,35.62-30.42,35.62-12.87,0-22.36-4.68-28.47-13.39Z" style="fill:#34495e"/><polygon points="279.42 107.69 279.41 107.72 259.78 47.4 239.89 47.4 271.22 137.1 287.73 137.1 288.38 135.25 279.42 107.69" style="fill:#34495e"/><polygon points="291.64 125.88 318.93 47.4 299.04 47.4 282.58 97.99 291.64 125.88" style="fill:#34495e"/><path d="M432.55,101.35c0-19.76-8.45-30.42-26.78-30.42-16.9,0-26.78,9.49-26.78,29.12v8.84c0,16.77,9.36,29.38,28.86,29.38,11.7,0,19.24-3.12,23.79-11.05l-12.35-8.58c-2.47,3.51-4.68,5.59-11.57,5.59-9.23,0-12.09-6.5-12.22-15.47h0V96.93h0c.65-7.41,3.77-12,10.4-12,6.24,0,9.62,3.51,10,12H401.5v11.83h31Z" style="fill:#34495e"/><path d="M580.36,101.35c0-19.76-8.45-30.42-26.78-30.42-16.9,0-26.78,9.49-26.78,29.12v8.84c0,16.77,9.36,29.38,28.86,29.38,11.7,0,19.24-3.12,23.79-11.05l-12.35-8.58c-2.47,3.51-4.68,5.59-11.57,5.59-9.23,0-12.09-6.5-12.22-15.47h0V96.93h0c.65-7.41,3.77-12,10.4-12,6.24,0,9.62,3.51,10,12H549.3v11.83h31.06Z" style="fill:#34495e"/><path d="M753.25,70.93c-13.39,0-20.67,2.86-25.48,10.79l11.7,8.19c2.73-4.29,5.85-5.2,12.22-5.2,9.36,0,11.57,2.34,11.57,9.62V98.1h0v12.22h0v2.47c0,8.84-3.64,12.09-11.18,12.09-5.72,0-9.49-2.34-9.49-7.28s3-7.28,9.75-7.28h4.92V98.1h-6.87c-13.65,0-24.05,6-24.05,19.76,0,13.26,9.36,20.41,22.88,20.41,7.54,0,11.44-2.47,14-6.89v5.72h16.25V94.46C779.52,75.87,770,70.93,753.25,70.93Z" style="fill:#34495e"/><path d="M925.5,77.56h0V72.1H908.86v65H925.5V98.88s0,0,0-.07Z" style="fill:#34495e"/><path d="M940.06,70.93a19.72,19.72,0,0,0-8.56,1.84V86.36a12.36,12.36,0,0,1,5.44-1.13c6.76,0,10.4,3.64,10.4,13.78V137.1h16.51V96.41C963.85,77.17,953.19,70.93,940.06,70.93Z" style="fill:#34495e"/><path d="M818.64,70.93c-6.63,0-11.31,2-14.43,5.46V72.1H787.57v89.7h16.64V134.5h0V107.92s0,0,0-.07V99.66c0-9.49,3.64-14.69,11.57-14.69,8.19,0,11.44,5.72,11.44,16.12v6.76c0,9.36-2.47,16.38-11.44,16.38a12.29,12.29,0,0,1-5.57-1.16v14.3a33.62,33.62,0,0,0,8.3.9c16.77,0,25.35-12.48,25.35-29.38v-8.84C843.86,81.46,833.72,70.93,818.64,70.93Z" style="fill:#34495e"/><path d="M874.54,70.93c-13.39,0-20.67,2.86-25.48,10.79l11.7,8.19c2.73-4.29,5.85-5.2,12.22-5.2,9.36,0,11.57,2.34,11.57,9.62V98.1h0v12.22h0v2.47c0,8.84-3.64,12.09-11.18,12.09-5.72,0-9.49-2.34-9.49-7.28s3-7.28,9.75-7.28h4.92V98.1h-6.87c-13.65,0-24.05,6-24.05,19.76,0,13.26,9.36,20.41,22.88,20.41,7.54,0,11.44-2.47,14-6.89v5.72H900.8V94.46C900.8,75.87,891.31,70.93,874.54,70.93Z" style="fill:#34495e"/></g></g></svg>